<svg id="Layer_1" data-name="Layer 1" xmlns="http://www.w3.org/2000/svg" viewBox="0 0 804.56 1025.04"><defs><style>.cls-1{fill:#fff;}</style></defs><path class="cls-1" d="M768.73,565.24c3.72-9.51,8-18.84,11.07-28.55,25.89-81.44,23-162.14-6.43-242.19a61.3,61.3,0,0,1-3.31-18.3c-.5-12.13,2.86-25.24-.63-36.28-18.53-58.44-47.5-112-81.2-163a60.48,60.48,0,0,0-12.35-13C628.3,25.15,572,8.21,512.38,2.54,374.26-10.61,249.88,27.7,138.71,109,79.78,152.12,33.58,206.33,10,276.94,3,298-2.85,319.39,1.5,342.47,10.72,391.36,17.61,440.72,28,489.33c4,18.48.66,42.67,25.43,51.93,1.11.41,1.44,3.26,1.91,5,3.58,13.4,7.1,26.81,10.78,40.79-22.33,7.21-32.43,24.13-34,45.34C27.79,692.69,42.36,745.41,75.8,790c3.67,2.55,6.59,5.88,9.75,9a11.68,11.68,0,0,1,4.61,3.51c8.92,4.93,16.64,11.4,25.38,17.18,12.1,8,27.18,9.45,40.64,14.34,15.55,5.65,25.56,16,31.2,31.48,1.47,4,14.61,27.26,19.66,35,9.77,14.9,19.27,28.76,32.24,41.2s41,33.75,50.47,41.37a11.61,11.61,0,0,1,3.14,2,12,12,0,0,1,3.67,2.1,11,11,0,0,1,2.32,1.11c106.83,46.12,214.73,50.31,327,4.3-.39.29-.36.27,0,0C707.94,952,732,899.13,732,899.13c17.83-39.78,30.34-81.06,34.1-124.5,2.25-26,5.78-50.78,19.49-74.11,8-13.67,12-30.24,15.42-46C810.54,610.18,801.23,585.88,768.73,565.24Zm-20.2-294.07c40.94,81.66,44.58,166.5,18.15,253.69,16.13-120.64-13.19-227.49-95-318.86C703.72,220.37,732.42,239,748.53,271.17ZM716.42,902.83C698.19,929.15,674,946.65,674,946.65c-49.76,30.45-102.14,55.2-161.16,62.85-79,10.24-153.95-3.59-221.36-44.74C242.55,934.89,206.13,891.47,191,834c-3-11.22-8.4-15.76-19.63-17.56A165.17,165.17,0,0,1,90.94,780C60,754.29,51.25,717.68,45.84,680.82c-2.75-18.73-.8-38.94,3.11-57.63,4.34-20.73,20.51-26.92,39.87-17.91,20.84,9.7,36.05,25.87,48.49,45,6.18,9.48,13,18.54,19.53,27.79l5-1.27c1.3-3.76,2.55-7.53,3.91-11.26,7.77-21.34,16-42.51,23.11-64.06a67.16,67.16,0,0,0,3.07-23.95c-1.69-32.43-4.28-64.82-6.28-97.23-.24-3.86,1.09-7.81,1.95-13.39,10.6,18.54,18.86,36.69,37,49.17,4.44-31,7.28-59.81,13-88s17.3-54.6,35.94-77.63c39.37,25.86,82,34.16,127.19,30.25,10.05-.88,20.08-3.88,29.64-7.26,3.55-1.25,5.72-6.4,8.52-9.77-3-2.44-5.54-5.75-8.92-7.19-36.56-15.5-53.68-46.48-64.5-83.29l12.08,9.7c51,41,108,69.19,173.06,79,17.74,2.66,36.19.31,54.27,1.19,8.28.4,17.62,1,24.46,5,39,22.76,80.87,37,125.49,43.54,7.87,43,4.25,85.15-2.5,127-3.69,22.87-10.21,45.26-14.84,68-.93,4.6.11,10.05,1.64,14.65C771.41,718.56,761,812.59,716.42,902.83ZM772.09,702c-7.42-27.68-14.58-56.35-22.92-84.68-3.91-13.28.39-24.35,8.27-33.14,7.32-8.15,17.4-2.13,20.88,4.84,5.61,11.25,10.34,24.13,10.79,36.49C790.12,652.71,782.18,678.59,772.09,702Z"/><path class="cls-1" d="M637.63,883.45C631,874.87,624.81,868.7,621,861.28a67.68,67.68,0,0,1-6.95-23.92c-1-10.79-6.44-14.76-16.2-14.51-58,1.51-116.11,3.11-174.68,4.7-6.08,22.41-13.08,43.9-38.77,57.23,2.14-5.88,2.51-9,4.13-11.06,18.48-23.87,26.31-50.48,23.93-80.84-.88-11.25,2.37-23,4.93-34.25,1.07-4.72,5.25-8.73,10.12-11.92l-6.38,73.74,192-6.4c-3-23.84-5.8-45.74-8.57-67.63l2.66-1.76c2.82,4.35,7.12,8.37,8.17,13.12,3.29,14.9,7.11,30,7.49,45.14.62,24.59,3.56,48.13,16.17,69.72a9.68,9.68,0,0,1,1.11,3.93C640.24,877.36,639.61,878.22,637.63,883.45Z"/><path class="cls-1" d="M142.37,774.9c-1,1.46-2.9,6.81-5.62,7.29-5.31.92-13.59,1.24-16.25-1.91-11.89-14-23.59-28.58-32.76-44.45-10.58-18.29-15.52-38.77-12.33-60.33,1.37-9.19,5.5-12.57,14-5.9C106.77,683.34,142.06,751.58,142.37,774.9Z"/><path class="cls-1" d="M341.68,603.71H315.75l-.37-4.39c25.35-8.87,52.69-5.47,78.35-10.92,9,21.19,12.78,23,32.06,16.28.86,22.85-14.13,41.51-35.33,44C364.85,651.63,347.85,636.31,341.68,603.71Z"/><path class="cls-1" d="M650.17,578.55c.19,21,7.19,26.18,27.52,20.94-2.5,21-16.07,34-36.11,34.51-21.5.59-35.92-15.06-39.71-43.43l-21.23-4C588.43,577.19,619.86,574.18,650.17,578.55Z"/><path class="cls-1" d="M402.26,942.58c4.93,2.59,10.06,4.87,14.76,7.82,42.28,26.63,87.7,36.29,135.79,20.81,15.7-5.06,29.06-17.32,43.6-26.09,3.13-1.89,6.77-2.92,10.17-4.35-.74,3.93-.24,8.8-2.4,11.65-15.75,20.84-38.06,31.11-62.94,35.19-45.62,7.49-89,1.25-127.83-25.61-5.64-3.9-10.17-9.43-15.21-14.2Z"/><path class="cls-1" d="M566.74,762.17c21.1-20.29,21.29-30.61,2.18-51.51-10-11-12.61-17.54-11-32.51,12.32,17.45,25.85,31.64,33.35,48.51C600.07,746.51,587,764,566.74,762.17Z"/><path class="cls-1" d="M338.43,664c31.63,17.94,61.49,13.58,90.65-6.64-.94,14.65-12.72,22.23-37.8,26.37C365.78,687.92,344.12,680.71,338.43,664Z"/><path class="cls-1" d="M686.44,645.62c-10.46,20.44-28.66,23.83-48,22.34-14.42-1.1-29.79-2.48-38.25-18.39C629.63,660.05,658.29,665.44,686.44,645.62Z"/><path class="cls-1" d="M470,709.21c-2.1,3.28-4.3,6.51-6.28,9.87-7.81,13.24-6.08,26.92,4.07,38.46,2.21,2.52,2.66,6.58,3.92,9.93-3.74-.8-8.49-.43-11-2.62-11.82-10.15-14-23.78-10.68-38.16,2.16-9.27,5.91-18.25,16.43-20.44Z"/><path class="cls-1" d="M682.71,528.44l-63.31-6.22C631.94,510.8,670.89,513.23,682.71,528.44Z"/><path class="cls-1" d="M412.85,538.21l-59.93,8.68C360.46,533,399.37,528.15,412.85,538.21Z"/><path class="cls-1" d="M472.92,743.39c8.57,3,15.35,4.59,21.25,7.8,2.31,1.25,3.84,6.27,3.48,9.3-.25,2-4.73,5.39-6.77,5a17,17,0,0,1-9.63-5.82C478.27,755.94,476.71,751.06,472.92,743.39Z"/><path class="cls-1" d="M572.29,738.37c-2.7,7.11-3.52,12.65-6.58,16.31-2.52,3-7.58,4.2-11.75,5.32-1.13.31-4.7-3.06-4.44-3.86,1.19-3.69,2.49-8.28,5.35-10.28C559.42,742.66,565.23,741.26,572.29,738.37Z"/></svg>